<?xml version="1.0" encoding="UTF-8"?>
<svg id="Layer_1" data-name="Layer 1" xmlns="http://www.w3.org/2000/svg" viewBox="0 0 500 500">
  <defs>
    <style>
      .cls-1 {
        fill: #fff;
      }
    </style>
  </defs>
  <path class="cls-1" d="m106.83,294.69c-6.14,0-12.08,0-18.19,0,0-.49,0-.92,0-1.35,0-17.68-.01-35.36,0-53.04.01-15.66,13.05-29.77,29.39-31.86,18.51-2.37,35.17,8.85,38.68,26.26,1.87,9.27-.25,17.86-6.18,25.49-4.19,5.38-8.5,10.69-12.75,16.03-.25.31-.48.63-.88,1.17,6.93,0,13.61,0,20.4,0,0,5.86,0,11.56,0,17.38-.47,0-.88,0-1.29,0-7.56,0-15.13.01-22.69,0-8.85-.02-15.85-6.14-16.55-14.49-.33-3.97.87-7.52,3.39-10.69,5.22-6.55,10.48-13.08,15.66-19.66,6.09-7.73,3.32-18.61-5.8-22.93-9.44-4.46-20.81.99-22.85,10.99-.24,1.17-.32,2.39-.32,3.58-.02,17.24-.01,34.48-.01,51.72,0,.43,0,.87,0,1.41Z"/>
  <path class="cls-1" d="m196.78,247.37c-8.69,0-15.14,6.58-15.14,15.14s6.45,15.14,15.14,15.14,15.14-6.45,15.14-15.14v-7.24h17.11v11.72c0,6.58,4.08,10.66,10.93,10.66v17.11c-8.56,0-15.93-3.29-20.93-8.69-5.79,5.4-13.56,8.69-22.25,8.69-18.04,0-32.25-14.22-32.25-32.25s14.09-32.25,32.25-32.25h50.82v-17.12h17.12v17.12h12.51v17.12h-12.51v16.72c0,7.37,5,12.24,12.51,12.24v17.12c-17.12,0-29.62-12.24-29.62-29.23v-16.85h-50.82Z"/>
  <path class="cls-1" d="m304.2,205.24v28.57c4.21-3.03,9.48-4.87,15.4-4.87,15.4,0,26.59,12.24,26.59,29.23v35.28h-17.11v-35.15c0-7.37-4.87-12.24-12.38-12.24s-12.51,4.87-12.51,12.24v35.15h-17.11v-88.21h17.11Z"/>
  <path class="cls-1" d="m382.66,276.33h28.7v17.12h-53.98v-14.48l28.04-31.6h-26.07v-17.12h51.34v14.48l-28.04,31.6Z"/>
</svg>