<svg width="323" height="90" viewBox="0 0 323 90" fill="none" xmlns="http://www.w3.org/2000/svg">
<path d="M18.1944 89.4498C12.0544 89.4498 6.11444 89.4498 0.00444444 89.4498C0.00444444 88.9598 0.00444444 88.5298 0.00444444 88.0998C0.00444444 70.4198 -0.00555556 52.7398 0.00444444 35.0598C0.0144444 19.3998 13.0544 5.28984 29.3944 3.19984C47.9044 0.829839 64.5645 12.0498 68.0745 29.4598C69.9445 38.7298 67.8244 47.3198 61.8944 54.9498C57.7044 60.3298 53.3944 65.6398 49.1444 70.9798C48.8944 71.2898 48.6644 71.6098 48.2644 72.1498C55.1944 72.1498 61.8745 72.1498 68.6645 72.1498C68.6645 78.0098 68.6645 83.7098 68.6645 89.5298C68.1945 89.5298 67.7844 89.5298 67.3744 89.5298C59.8144 89.5298 52.2445 89.5398 44.6845 89.5298C35.8345 89.5098 28.8344 83.3898 28.1344 75.0398C27.8044 71.0698 29.0044 67.5198 31.5244 64.3498C36.7444 57.7998 42.0045 51.2698 47.1845 44.6898C53.2745 36.9598 50.5044 26.0798 41.3844 21.7598C31.9444 17.2998 20.5744 22.7498 18.5344 32.7498C18.2944 33.9198 18.2144 35.1398 18.2144 36.3298C18.1944 53.5698 18.2044 70.8098 18.2044 88.0498C18.2044 88.4798 18.2044 88.9198 18.2044 89.4598L18.1944 89.4498Z" fill="white"/>
<path d="M108.145 42.1304C99.4545 42.1304 93.0045 48.7104 93.0045 57.2704C93.0045 65.8304 99.4545 72.4104 108.145 72.4104C116.835 72.4104 123.285 65.9604 123.285 57.2704V50.0304H140.395V61.7504C140.395 68.3304 144.475 72.4104 151.325 72.4104V89.5204C142.765 89.5204 135.395 86.2304 130.395 80.8304C124.605 86.2304 116.835 89.5204 108.145 89.5204C90.1045 89.5204 75.8945 75.3004 75.8945 57.2704C75.8945 39.2404 89.9845 25.0204 108.145 25.0204H158.965V7.90039H176.085V25.0204H188.595V42.1404H176.085V58.8604C176.085 66.2304 181.085 71.1004 188.595 71.1004V88.2204C171.475 88.2204 158.975 75.9804 158.975 58.9904V42.1404H108.155L108.145 42.1304Z" fill="white"/>
<path d="M215.565 0V28.57C219.775 25.54 225.045 23.7 230.965 23.7C246.365 23.7 257.555 35.94 257.555 52.93V88.21H240.445V53.06C240.445 45.69 235.575 40.82 228.065 40.82C220.555 40.82 215.555 45.69 215.555 53.06V88.21H198.445V0H215.555H215.565Z" fill="white"/>
<path d="M294.026 71.0898H322.726V88.2098H268.746V73.7298L296.786 42.1298H270.716V25.0098H322.056V39.4898L294.016 71.0898H294.026Z" fill="white"/>
</svg>
